name Walk2.mot
datacolumns 19
datarows 27
range 1.65000000 1.78000000
endheader

                time	   L_ground_force_vx	   L_ground_force_vy	   L_ground_force_vz	   L_ground_force_px	   L_ground_force_py	   L_ground_force_pz	   R_ground_force_vx	   R_ground_force_vy	   R_ground_force_vz	   R_ground_force_px	   R_ground_force_py	   R_ground_force_pz	   L_ground_torque_x	   L_ground_torque_y	   L_ground_torque_z	   R_ground_torque_x	   R_ground_torque_y	   R_ground_torque_z	
          1.65000000	         13.72437070	        560.66321602	         38.06002353	         -0.35219920	          0.00000000	         -0.08460661	         -0.00612336	          0.18070697	          0.01082906	          0.00007928	          0.00000000	          0.00006824	          0.00000000	         -0.44688916	          0.00000000	          0.00000000	         -0.00003192	          0.00000000	
          1.65500000	         15.56512166	        567.19170520	         38.90126613	         -0.35108384	          0.00000000	         -0.08480496	         -0.01145142	          0.23331889	          0.01223672	          0.00009725	          0.00000000	          0.00008326	          0.00000000	         -0.46352582	          0.00000000	          0.00000000	          0.00000132	          0.00000000	
          1.66000000	         17.47165799	        573.96516338	         39.78213835	         -0.35001127	          0.00000000	         -0.08497521	         -0.01834760	          0.28658609	          0.01292268	          0.00011329	          0.00000000	          0.00009642	          0.00000000	         -0.48160430	          0.00000000	          0.00000000	          0.00005299	          0.00000000	
          1.66500000	         19.43914085	        581.03410905	         40.68793833	         -0.34897580	          0.00000000	         -0.08511899	         -0.02683859	          0.33430575	          0.01239861	          0.00012433	          0.00000000	          0.00010504	          0.00000000	         -0.50220306	          0.00000000	          0.00000000	          0.00012702	          0.00000000	
          1.67000000	         21.46117382	        588.44257136	         41.60389883	         -0.34797208	          0.00000000	         -0.08523711	         -0.03676931	          0.36748955	          0.01005230	          0.00012620	          0.00000000	          0.00010554	          0.00000000	         -0.52638726	          0.00000000	          0.00000000	          0.00022681	          0.00000000	
          1.67500000	         23.53065440	        596.21302127	         42.51523041	         -0.34699588	          0.00000000	         -0.08533083	         -0.04772040	          0.37391390	          0.00515378	          0.00011356	          0.00000000	          0.00009330	          0.00000000	         -0.55499230	          0.00000000	          0.00000000	          0.00035444	          0.00000000	
          1.68000000	         25.64244337	        604.33970123	         43.40685490	         -0.34604426	          0.00000000	         -0.08540148	         -0.05891204	          0.33781783	         -0.00312048	          0.00007985	          0.00000000	          0.00006270	          0.00000000	         -0.58860192	          0.00000000	          0.00000000	          0.00050975	          0.00000000	
          1.68500000	         27.79626804	        612.79248217	         44.26404551	         -0.34511657	          0.00000000	         -0.08544806	         -0.06909854	          0.23986792	         -0.01563836	          0.00001743	          0.00000000	          0.00000725	          0.00000000	         -0.62767729	          0.00000000	          0.00000000	          0.00068908	          0.00000000	
          1.69000000	         29.99795955	        621.51869067	         45.07265208	         -0.34421343	          0.00000000	         -0.08546850	         -0.07646137	          0.05754437	         -0.03322983	         -0.00008206	          0.00000000	         -0.00008010	          0.00000000	         -0.67247831	          0.00000000	          0.00000000	          0.00088374	          0.00000000	
          1.69500000	         32.25947788	        630.44462493	         45.81969625	         -0.34333607	          0.00000000	         -0.08546253	         -0.07851299	         -0.23386412	         -0.05656344	         -0.00022708	          0.00000000	         -0.00020645	          0.00000000	         -0.72277167	          0.00000000	          0.00000000	          0.00107829	          0.00000000	
          1.70000000	         34.59831770	        639.47497471	         46.49480934	         -0.34248668	          0.00000000	         -0.08543092	         -0.07202939	         -0.65943858	         -0.08597353	         -0.00042521	          0.00000000	         -0.00037800	          0.00000000	         -0.77794891	          0.00000000	          0.00000000	          0.00124869	          0.00000000	
          1.70500000	         37.03523828	        648.49476876	         47.09096021	         -0.34166683	          0.00000000	         -0.08537440	         -0.05303575	         -1.24174347	         -0.12123209	         -0.00068173	          0.00000000	         -0.00059890	          0.00000000	         -0.83712368	          0.00000000	          0.00000000	          0.00136040	          0.00000000	
          1.71000000	         39.59052457	        657.37064292	         47.60451573	         -0.34087714	          0.00000000	         -0.08529456	         -0.01687665	         -1.99663607	         -0.16126225	         -0.00099767	          0.00000000	         -0.00086951	          0.00000000	         -0.89879201	          0.00000000	          0.00000000	          0.00136684	          0.00000000	
          1.71500000	         42.28096856	        665.95299570	         48.03540008	         -0.34011801	          0.00000000	         -0.08519449	          0.04159049	         -2.92755897	         -0.20379630	         -0.00136731	          0.00000000	         -0.00118425	          0.00000000	         -0.96064757	          0.00000000	          0.00000000	          0.00120830	          0.00000000	
          1.72000000	         45.11896843	        674.08485752	         48.38759725	         -0.33938938	          0.00000000	         -0.08507874	          0.12763367	         -4.01817103	         -0.24498923	         -0.00177507	          0.00000000	         -0.00152900	          0.00000000	         -1.02004241	          0.00000000	          0.00000000	          0.00081207	          0.00000000	
          1.72500000	         48.11221699	        681.60953323	         48.66886808	         -0.33869020	          0.00000000	         -0.08495330	          0.24606685	         -5.22329602	         -0.27901060	         -0.00219202	          0.00000000	         -0.00187803	          0.00000000	         -1.07424602	          0.00000000	          0.00000000	          0.00009404	          0.00000000	
          1.73000000	         51.26425413	        688.37548914	         48.89022717	         -0.33801860	          0.00000000	         -0.08482469	          0.40040220	         -6.45836442	         -0.29765300	         -0.00257186	          0.00000000	         -0.00219069	          0.00000000	         -1.12051194	          0.00000000	          0.00000000	         -0.00103725	          0.00000000	
          1.73500000	         54.57567708	        694.23669259	         49.06482544	         -0.33737204	          0.00000000	         -0.08469947	          0.59168877	         -7.58780733	         -0.29001459	         -0.00284700	          0.00000000	         -0.00240807	          0.00000000	         -1.15644257	          0.00000000	          0.00000000	         -0.00267342	          0.00000000	
          1.74000000	         58.04370657	        699.05424592	         49.20588197	         -0.33674649	          0.00000000	         -0.08458465	          0.81700533	         -8.41324798	         -0.24233648	         -0.00292493	          0.00000000	         -0.00245006	          0.00000000	         -1.17996809	          0.00000000	          0.00000000	         -0.00489513	          0.00000000	
          1.74500000	         61.66131810	        702.69740465	         49.32377135	         -0.33613640	          0.00000000	         -0.08448664	          1.06759971	         -8.66283366	         -0.13810130	         -0.00268572	          0.00000000	         -0.00221338	          0.00000000	         -1.18942327	          0.00000000	          0.00000000	         -0.00775592	          0.00000000	
          1.75000000	         65.41762611	        705.04413756	         49.42329386	         -0.33553566	          0.00000000	         -0.08440967	          1.32670647	         -7.98366187	          0.04147268	         -0.00198148	          0.00000000	         -0.00157134	          0.00000000	         -1.18378878	          0.00000000	          0.00000000	         -0.01126044	          0.00000000	
          1.75500000	         69.29875892	        705.97800168	         49.50101415	         -0.33493776	          0.00000000	         -0.08435453	          1.56713213	         -5.93996546	          0.31638197	         -0.00063892	          0.00000000	         -0.00037636	          0.00000000	         -1.16300683	          0.00000000	          0.00000000	         -0.01533660	          0.00000000	
          1.76000000	         73.28809847	        705.38239521	         49.54293550	         -0.33433656	          0.00000000	         -0.08432006	          1.74877564	         -2.02050220	          0.70605116	          0.00153342	          0.00000000	          0.00153349	          0.00000000	         -1.12789354	          0.00000000	          0.00000000	         -0.01980145	          0.00000000	
          1.76500000	         77.36444706	        703.13719249	         49.52352177	         -0.33372706	          0.00000000	         -0.08430250	          1.81635369	          4.34061393	          1.22661744	          0.00473182	          0.00000000	          0.00432254	          0.00000000	         -1.07996903	          0.00000000	          0.00000000	         -0.02432176	          0.00000000	
          1.77000000	         81.49939811	        699.11993109	         49.40621738	         -0.33310530	          0.00000000	         -0.08429522	          1.69772612	         13.72468978	          1.88710157	          0.00913577	          0.00000000	          0.00813865	          0.00000000	         -1.02132482	          0.00000000	          0.00000000	         -0.02837110	          0.00000000	
          1.77500000	         85.65503075	        693.20436290	         49.14627045	         -0.33246808	          0.00000000	         -0.08428950	          1.30336340	         26.66538761	          2.68431450	          0.01487650	          0.00000000	          0.01308568	          0.00000000	         -0.95435296	          0.00000000	          0.00000000	         -0.03118659	          0.00000000	
          1.78000000	         89.78167908	        685.26074526	         48.69399921	         -0.33181343	          0.00000000	         -0.08427519	          0.52766086	         43.55625818	          3.59642083	          0.02199379	          0.00000000	          0.01918614	          0.00000000	         -0.88134947	          0.00000000	          0.00000000	         -0.03173083	          0.00000000	
